<svg width="43" height="187" viewBox="0 0 43 187" fill="none" xmlns="http://www.w3.org/2000/svg">
<path d="M0.938887 186.254C0.422499 186.254 0 185.576 0 184.746L0 178.551C0 177.722 0.422499 177.043 0.938887 177.043H41.2697C41.7861 177.043 42.2086 177.722 42.2086 178.551V184.746C42.2086 185.576 41.7861 186.254 41.2697 186.254H0.938887Z" fill="black"/>
<path d="M0.938887 186.254C0.422499 186.254 0 185.576 0 184.746L0 178.551C0 177.722 0.422499 177.043 0.938887 177.043H41.2697C41.7861 177.043 42.2086 177.722 42.2086 178.551V184.746C42.2086 185.576 41.7861 186.254 41.2697 186.254H0.938887ZM0.938887 171.825C0.422499 171.825 0 171.146 0 170.317L0 167.896C0 167.067 0.422499 166.389 0.938887 166.389H41.2697C41.7861 166.389 42.2086 167.067 42.2086 167.896V170.317C42.2086 171.146 41.7861 171.825 41.2697 171.825H0.938887Z" fill="black"/>
<path d="M0.938887 171.824C0.422499 171.824 0 171.146 0 170.317L0 167.896C0 167.067 0.422499 166.389 0.938887 166.389H41.2697C41.7861 166.389 42.2086 167.067 42.2086 167.896V170.317C42.2086 171.146 41.7861 171.824 41.2697 171.824H0.938887ZM0.938887 161.17C0.422499 161.17 0 160.491 0 159.662L0 151.266C0 150.436 0.422499 149.758 0.938887 149.758H41.2697C41.7861 149.758 42.2086 150.436 42.2086 151.266V159.662C42.2086 160.491 41.7861 161.17 41.2697 161.17H0.938887Z" fill="black"/>
<path d="M0.938887 161.17C0.422499 161.17 0 160.492 0 159.662L0 151.266C0 150.437 0.422499 149.758 0.938887 149.758H41.2697C41.7861 149.758 42.2086 150.437 42.2086 151.266V159.662C42.2086 160.492 41.7861 161.17 41.2697 161.17H0.938887ZM0.938887 144.54C0.422499 144.54 0 143.861 0 143.032L0 139.508C0 138.679 0.422499 138.001 0.938887 138.001H41.2697C41.7861 138.001 42.2086 138.679 42.2086 139.508V143.032C42.2086 143.861 41.7861 144.54 41.2697 144.54H0.938887Z" fill="black"/>
<path d="M0.938887 144.539C0.422499 144.539 0 143.861 0 143.032L0 139.507C0 138.678 0.422499 138 0.938887 138H41.2697C41.7861 138 42.2086 138.678 42.2086 139.507V143.032C42.2086 143.861 41.7861 144.539 41.2697 144.539H0.938887ZM0.938887 132.781C0.422499 132.781 0 132.103 0 131.273L0 129.558C0 128.729 0.422499 128.051 0.938887 128.051H41.2697C41.7861 128.051 42.2086 128.729 42.2086 129.558V131.273C42.2086 132.103 41.7861 132.781 41.2697 132.781H0.938887Z" fill="black"/>
<path d="M0.938887 132.781C0.422499 132.781 0 132.103 0 131.274L0 129.559C0 128.73 0.422499 128.051 0.938887 128.051H41.2697C41.7861 128.051 42.2086 128.73 42.2086 129.559V131.274C42.2086 132.103 41.7861 132.781 41.2697 132.781H0.938887ZM0.938887 122.832C0.422499 122.832 0 122.154 0 121.325L0 112.072C0 111.243 0.422499 110.564 0.938887 110.564H41.2697C41.7861 110.564 42.2086 111.243 42.2086 112.072V121.325C42.2086 122.154 41.7861 122.832 41.2697 122.832H0.938887Z" fill="black"/>
<path d="M0.938887 122.832C0.422499 122.832 0 122.154 0 121.325L0 112.072C0 111.243 0.422499 110.564 0.938887 110.564H41.2697C41.7861 110.564 42.2086 111.243 42.2086 112.072V121.325C42.2086 122.154 41.7861 122.832 41.2697 122.832H0.938887ZM0.938887 105.346C0.422499 105.346 0 104.667 0 103.838L0 100.012C0 99.183 0.422499 98.5047 0.938887 98.5047H41.2697C41.7861 98.5047 42.2086 99.183 42.2086 100.012V103.838C42.2086 104.667 41.7861 105.346 41.2697 105.346H0.938887Z" fill="black"/>
<path d="M0.938887 105.346C0.422499 105.346 0 104.667 0 103.838L0 100.012C0 99.1832 0.422499 98.5049 0.938887 98.5049H41.2697C41.7861 98.5049 42.2086 99.1832 42.2086 100.012V103.838C42.2086 104.667 41.7861 105.346 41.2697 105.346H0.938887ZM0.938887 93.286C0.422499 93.286 0 92.6077 0 91.7786L0 85.5407C0 84.7116 0.422499 84.0333 0.938887 84.0333H41.2697C41.7861 84.0333 42.2086 84.7116 42.2086 85.5407V91.7786C42.2086 92.6077 41.7861 93.286 41.2697 93.286H0.938887Z" fill="black"/>
<path d="M0.938887 93.2871C0.422499 93.2871 0 92.6088 0 91.7797L0 85.5418C0 84.7127 0.422499 84.0343 0.938887 84.0343H41.2697C41.7861 84.0343 42.2086 84.7127 42.2086 85.5418V91.7797C42.2086 92.6088 41.7861 93.2871 41.2697 93.2871H0.938887ZM0.938887 78.8155C0.422499 78.8155 0 78.1372 0 77.3081L0 74.5856C0 73.7565 0.422499 73.0781 0.938887 73.0781H41.2697C41.7861 73.0781 42.2086 73.7565 42.2086 74.5856V77.3081C42.2086 78.1372 41.7861 78.8155 41.2697 78.8155H0.938887Z" fill="black"/>
<path d="M0.938887 78.8145C0.422499 78.8145 0 78.1361 0 77.307L0 74.5845C0 73.7554 0.422499 73.0771 0.938887 73.0771H41.2697C41.7861 73.0771 42.2086 73.7554 42.2086 74.5845V77.307C42.2086 78.1361 41.7861 78.8145 41.2697 78.8145H0.938887ZM0.938887 67.8582C0.422499 67.8582 0 67.1799 0 66.3508L0 63.5315C0 62.7024 0.422499 62.0241 0.938887 62.0241H41.2697C41.7861 62.0241 42.2086 62.7024 42.2086 63.5315V66.3508C42.2086 67.1799 41.7861 67.8582 41.2697 67.8582H0.938887Z" fill="black"/>
<path d="M0.938887 67.8574C0.422499 67.8574 0 67.1791 0 66.35L0 63.5307C0 62.7016 0.422499 62.0233 0.938887 62.0233H41.2697C41.7861 62.0233 42.2086 62.7016 42.2086 63.5307V66.35C42.2086 67.1791 41.7861 67.8574 41.2697 67.8574H0.938887ZM0 52.4753C0 51.6462 0.422499 50.9679 0.938887 50.9679H41.2697C41.7861 50.9679 42.2086 51.6462 42.2086 52.4753V55.2973C42.2086 56.1264 41.7861 56.8047 41.2697 56.8047H0.938887C0.422499 56.8047 0 56.1264 0 55.2973L0 52.4753Z" fill="black"/>
<path d="M0 52.4753C0 51.6462 0.422499 50.9678 0.938887 50.9678H41.2697C41.7861 50.9678 42.2086 51.6462 42.2086 52.4753V55.2972C42.2086 56.1263 41.7861 56.8047 41.2697 56.8047H0.938887C0.422499 56.8047 0 56.1263 0 55.2972L0 52.4753Z" fill="black"/>
<path d="M0.938887 48.2539C0.422499 48.2539 0 47.5755 0 46.7464L0 40.5508C0 39.7217 0.422499 39.0433 0.938887 39.0433H41.2697C41.7861 39.0433 42.2086 39.7217 42.2086 40.5508V46.7464C42.2086 47.5755 41.7861 48.2539 41.2697 48.2539H0.938887Z" fill="black"/>
<path d="M0.938887 48.2539C0.422499 48.2539 0 47.5755 0 46.7464L0 40.5508C0 39.7217 0.422499 39.0433 0.938887 39.0433H41.2697C41.7861 39.0433 42.2086 39.7217 42.2086 40.5508V46.7464C42.2086 47.5755 41.7861 48.2539 41.2697 48.2539H0.938887ZM0.938887 33.8245C0.422499 33.8245 0 33.1462 0 32.3171L0 29.8964C0 29.0673 0.422499 28.3889 0.938887 28.3889L41.2697 28.3889C41.7861 28.3889 42.2086 29.0673 42.2086 29.8964V32.3171C42.2086 33.1462 41.7861 33.8245 41.2697 33.8245H0.938887Z" fill="black"/>
<path d="M0.938887 33.8242C0.422499 33.8242 0 33.1459 0 32.3168L0 29.8961C0 29.067 0.422499 28.3886 0.938887 28.3886L41.2697 28.3886C41.7861 28.3886 42.2086 29.067 42.2086 29.8961V32.3168C42.2086 33.1459 41.7861 33.8242 41.2697 33.8242H0.938887ZM0.938887 23.1695C0.422499 23.1695 0 22.4911 0 21.662L0 13.2655C0 12.4364 0.422499 11.758 0.938887 11.758L41.2697 11.758C41.7861 11.758 42.2086 12.4364 42.2086 13.2655V21.662C42.2086 22.4911 41.7861 23.1695 41.2697 23.1695H0.938887Z" fill="black"/>
<path d="M0.938887 23.1699C0.422499 23.1699 0 22.4916 0 21.6625L0 13.2659C0 12.4368 0.422499 11.7585 0.938887 11.7585L41.2697 11.7585C41.7861 11.7585 42.2086 12.4368 42.2086 13.2659V21.6625C42.2086 22.4916 41.7861 23.1699 41.2697 23.1699L0.938887 23.1699ZM0.938887 6.53964C0.422499 6.53964 0 5.86129 0 5.03218L0 1.50805C0 0.678947 0.422499 0.000591278 0.938887 0.000591278L41.2697 0.000591278C41.7861 0.000591278 42.2086 0.678947 42.2086 1.50805V5.03218C42.2086 5.86129 41.7861 6.53964 41.2697 6.53964L0.938887 6.53964Z" fill="black"/>
</svg>
