<svg width="38" height="30" viewBox="0 0 38 30" fill="none" xmlns="http://www.w3.org/2000/svg">
<path d="M36.7357 4.70462C35.9772 3.90994 34.9297 3.44036 33.7376 3.44036H27.7414V3.36812C27.7414 2.46507 27.3802 1.59815 26.7662 1.02021C26.1521 0.406139 25.3213 0.0449219 24.4182 0.0449219H13.5817C12.6426 0.0449219 11.8118 0.406139 11.1977 1.02021C10.5836 1.63428 10.2224 2.46507 10.2224 3.36812V3.44036H4.26236C3.07034 3.44036 2.02281 3.90994 1.26426 4.70462C0.505703 5.46317 0 6.54682 0 7.70272V25.6913C0 26.8833 0.469582 27.9309 1.26426 28.6894C2.02281 29.448 3.10646 29.9537 4.26236 29.9537H33.7376C34.9297 29.9537 35.9772 29.4841 36.7357 28.6894C37.4943 27.9309 38 26.8472 38 25.6913V7.70272C38 6.5107 37.5304 5.46317 36.7357 4.70462ZM36.1217 25.6913H36.0855C36.0855 26.3415 35.8327 26.9194 35.3992 27.3529C34.9658 27.7864 34.3878 28.0392 33.7376 28.0392H4.26236C3.61217 28.0392 3.03422 27.7864 2.60076 27.3529C2.1673 26.9194 1.91445 26.3415 1.91445 25.6913V7.70272C1.91445 7.05253 2.1673 6.47458 2.60076 6.04112C3.03422 5.60766 3.61217 5.35481 4.26236 5.35481H11.2338C11.7757 5.35481 12.2091 4.92135 12.2091 4.37952V3.33199C12.2091 2.93466 12.3536 2.57344 12.6065 2.32059C12.8593 2.06774 13.2205 1.92325 13.6179 1.92325H24.4182C24.8156 1.92325 25.1768 2.06774 25.4297 2.32059C25.6825 2.57344 25.827 2.93466 25.827 3.33199V4.37952C25.827 4.92135 26.2605 5.35481 26.8023 5.35481H33.7738C34.424 5.35481 35.0019 5.60766 35.4354 6.04112C35.8688 6.47458 36.1217 7.05253 36.1217 7.70272V25.6913Z" fill="white"/>
<path d="M19.0002 7.81055C16.5439 7.81055 14.3044 8.82195 12.715 10.4113C11.0895 12.0368 10.1143 14.2402 10.1143 16.6965C10.1143 19.1528 11.1257 21.3923 12.715 22.9816C14.3405 24.6071 16.5439 25.5824 19.0002 25.5824C21.4565 25.5824 23.696 24.571 25.2854 22.9816C26.9108 21.3562 27.8861 19.1528 27.8861 16.6965C27.8861 14.2402 26.8747 12.0007 25.2854 10.4113C23.696 8.82195 21.4565 7.81055 19.0002 7.81055ZM23.9127 21.6451C22.6485 22.8733 20.9146 23.668 19.0002 23.668C17.0857 23.668 15.3519 22.8733 14.0876 21.6451C12.8234 20.3809 12.0648 18.647 12.0648 16.7326C12.0648 14.8182 12.8595 13.0843 14.0876 11.8201C15.3519 10.5558 17.0857 9.79724 19.0002 9.79724C20.9146 9.79724 22.6485 10.5919 23.9127 11.8201C25.177 13.0843 25.9356 14.8182 25.9356 16.7326C25.9717 18.647 25.177 20.3809 23.9127 21.6451Z" fill="white"/>
<path d="M31.8593 11.3153C32.8368 11.3153 33.6293 10.5229 33.6293 9.54535C33.6293 8.56783 32.8368 7.77539 31.8593 7.77539C30.8818 7.77539 30.0894 8.56783 30.0894 9.54535C30.0894 10.5229 30.8818 11.3153 31.8593 11.3153Z" fill="white"/>
</svg>
